{
    "asset" : {
        "generator" : "Khronos glTF Blender I/O v3.4.50",
        "version" : "2.0"
    },
    "scene" : 0,
    "scenes" : [
        {
            "name" : "Scene",
            "nodes" : [
                0
            ]
        }
    ],
    "nodes" : [
        {
            "mesh" : 0,
            "name" : "node-025AF8FD",
            "rotation" : [
                0.70710688829422,
                0,
                0,
                0.7071066498756409
            ],
            "scale" : [
                0.009999999776482582,
                0.009999999776482582,
                0.009999999776482582
            ]
        }
    ],
    "materials" : [
        {
            "doubleSided" : true,
            "name" : "material-021A6942",
            "pbrMetallicRoughness" : {}
        }
    ],
    "meshes" : [
        {
            "name" : "geom-025AF8FD",
            "primitives" : [
                {
                    "attributes" : {
                        "COLOR_0" : 0,
                        "POSITION" : 1,
                        "TEXCOORD_0" : 2,
                        "NORMAL" : 3
                    },
                    "indices" : 4,
                    "material" : 0
                }
            ]
        }
    ],
    "accessors" : [
        {
            "bufferView" : 0,
            "componentType" : 5123,
            "count" : 631,
            "normalized" : true,
            "type" : "VEC4"
        },
        {
            "bufferView" : 1,
            "componentType" : 5126,
            "count" : 631,
            "max" : [
                5696.15966796875,
                14424.279296875,
                700
            ],
            "min" : [
                -7726.15966796875,
                -1255.469970703125,
                -543.1300048828125
            ],
            "type" : "VEC3"
        },
        {
            "bufferView" : 2,
            "componentType" : 5126,
            "count" : 631,
            "type" : "VEC2"
        },
        {
            "bufferView" : 3,
            "componentType" : 5126,
            "count" : 631,
            "type" : "VEC3"
        },
        {
            "bufferView" : 4,
            "componentType" : 5123,
            "count" : 645,
            "type" : "SCALAR"
        }
    ],
    "bufferViews" : [
        {
            "buffer" : 0,
            "byteLength" : 5048,
            "byteOffset" : 0,
            "target" : 34962
        },
        {
            "buffer" : 0,
            "byteLength" : 7572,
            "byteOffset" : 5048,
            "target" : 34962
        },
        {
            "buffer" : 0,
            "byteLength" : 5048,
            "byteOffset" : 12620,
            "target" : 34962
        },
        {
            "buffer" : 0,
            "byteLength" : 7572,
            "byteOffset" : 17668,
            "target" : 34962
        },
        {
            "buffer" : 0,
            "byteLength" : 1290,
            "byteOffset" : 25240,
            "target" : 34963
        }
    ],
    "buffers" : [
        {
            "byteLength" : 26532,
            "uri" : "data:application/octet-stream;base64,"
        }
    ]
}
