# Blender 3.4.1
# www.blender.org
mtllib arrow.mtl
o Cone
v 0.037809 -0.761687 0.000000
v 0.037083 -0.761687 -0.007376
v 0.034931 -0.761687 -0.014469
v 0.031437 -0.761687 -0.021006
v 0.026735 -0.761687 -0.026735
v 0.021006 -0.761687 -0.031437
v 0.014469 -0.761687 -0.034931
v 0.007376 -0.761687 -0.037083
v 0.000000 -0.761687 -0.037809
v -0.007376 -0.761687 -0.037083
v -0.014469 -0.761687 -0.034931
v -0.021006 -0.761687 -0.031437
v -0.026735 -0.761687 -0.026735
v -0.031437 -0.761687 -0.021006
v -0.034931 -0.761687 -0.014469
v -0.037083 -0.761687 -0.007376
v -0.037809 -0.761687 0.000000
v -0.037083 -0.761687 0.007376
v -0.034931 -0.761687 0.014469
v -0.031437 -0.761687 0.021006
v -0.026735 -0.761687 0.026735
v -0.021006 -0.761687 0.031437
v -0.014469 -0.761687 0.034931
v -0.007376 -0.761687 0.037083
v 0.000000 -0.761687 0.037809
v 0.007376 -0.761687 0.037083
v 0.014469 -0.761687 0.034931
v 0.021006 -0.761687 0.031437
v 0.026735 -0.761687 0.026735
v 0.031437 -0.761687 0.021006
v 0.034931 -0.761687 0.014469
v 0.037083 -0.761687 0.007376
v 0.000000 -0.912924 -0.000000
v 0.010000 -0.766964 0.000000
v 0.010000 0.002732 0.000000
v 0.008090 -0.766964 0.005878
v 0.008090 0.002732 0.005878
v 0.003090 -0.766964 0.009511
v 0.003090 0.002732 0.009511
v -0.003090 -0.766964 0.009511
v -0.003090 0.002732 0.009511
v -0.008090 -0.766964 0.005878
v -0.008090 0.002732 0.005878
v -0.010000 -0.766964 0.000000
v -0.010000 0.002732 0.000000
v -0.008090 -0.766964 -0.005878
v -0.008090 0.002732 -0.005878
v -0.003090 -0.766964 -0.009511
v -0.003090 0.002732 -0.009511
v 0.003090 -0.766964 -0.009511
v 0.003090 0.002732 -0.009511
v 0.008090 -0.766964 -0.005878
v 0.008090 0.002732 -0.005878
vn 0.9657 -0.2414 -0.0951
vn 0.9286 -0.2414 -0.2817
vn 0.8558 -0.2414 -0.4575
vn 0.7501 -0.2414 -0.6156
vn 0.6156 -0.2414 -0.7501
vn 0.4575 -0.2414 -0.8558
vn 0.2817 -0.2414 -0.9286
vn 0.0951 -0.2414 -0.9657
vn -0.0951 -0.2414 -0.9657
vn -0.2817 -0.2414 -0.9286
vn -0.4575 -0.2414 -0.8558
vn -0.6156 -0.2414 -0.7501
vn -0.7501 -0.2414 -0.6156
vn -0.8558 -0.2414 -0.4575
vn -0.9286 -0.2414 -0.2817
vn -0.9657 -0.2414 -0.0951
vn -0.9657 -0.2414 0.0951
vn -0.9286 -0.2414 0.2817
vn -0.8558 -0.2414 0.4575
vn -0.7501 -0.2414 0.6156
vn -0.6156 -0.2414 0.7501
vn -0.4575 -0.2414 0.8558
vn -0.2817 -0.2414 0.9286
vn -0.0951 -0.2414 0.9657
vn 0.0951 -0.2414 0.9657
vn 0.2817 -0.2414 0.9286
vn 0.4575 -0.2414 0.8558
vn 0.6156 -0.2414 0.7501
vn 0.7501 -0.2414 0.6156
vn 0.8558 -0.2414 0.4575
vn -0.0000 1.0000 -0.0000
vn 0.9286 -0.2414 0.2817
vn 0.9657 -0.2414 0.0951
vn 0.9511 -0.0000 0.3090
vn 0.5878 -0.0000 0.8090
vn -0.0000 -0.0000 1.0000
vn -0.5878 -0.0000 0.8090
vn -0.9511 -0.0000 0.3090
vn -0.9511 -0.0000 -0.3090
vn -0.5878 -0.0000 -0.8090
vn -0.0000 -0.0000 -1.0000
vn 0.5878 -0.0000 -0.8090
vn 0.9511 -0.0000 -0.3090
vn -0.0000 -1.0000 -0.0000
vt 0.250000 0.490000
vt 0.750000 0.490000
vt 0.296822 0.485388
vt 0.796822 0.485388
vt 0.341844 0.471731
vt 0.841844 0.471731
vt 0.383337 0.449553
vt 0.883337 0.449553
vt 0.419706 0.419706
vt 0.919706 0.419706
vt 0.449553 0.383337
vt 0.949553 0.383337
vt 0.471731 0.341844
vt 0.971731 0.341844
vt 0.485388 0.296822
vt 0.985388 0.296822
vt 0.490000 0.250000
vt 0.990000 0.250000
vt 0.485388 0.203178
vt 0.985388 0.203178
vt 0.471731 0.158156
vt 0.971731 0.158156
vt 0.449553 0.116663
vt 0.949553 0.116663
vt 0.419706 0.080294
vt 0.919706 0.080294
vt 0.383337 0.050447
vt 0.883337 0.050447
vt 0.341844 0.028269
vt 0.841844 0.028269
vt 0.296822 0.014612
vt 0.796822 0.014612
vt 0.250000 0.010000
vt 0.750000 0.010000
vt 0.203178 0.014612
vt 0.703178 0.014612
vt 0.158156 0.028269
vt 0.658156 0.028269
vt 0.116663 0.050447
vt 0.616663 0.050447
vt 0.080294 0.080294
vt 0.580294 0.080294
vt 0.050447 0.116663
vt 0.550447 0.116663
vt 0.028269 0.158156
vt 0.528269 0.158156
vt 0.014612 0.203178
vt 0.514612 0.203178
vt 0.010000 0.250000
vt 0.510000 0.250000
vt 0.014612 0.296822
vt 0.514612 0.296822
vt 0.028269 0.341844
vt 0.528269 0.341844
vt 0.050447 0.383337
vt 0.550447 0.383337
vt 0.080294 0.419706
vt 0.580294 0.419706
vt 0.116663 0.449553
vt 0.616663 0.449553
vt 0.158156 0.471731
vt 0.658156 0.471731
vt 0.203178 0.485388
vt 0.703178 0.485388
vt 0.250000 0.250000
vt 1.000000 0.500000
vt -0.000000 0.500000
vt 0.750000 0.490000
vt 1.000000 1.000000
vt 0.250000 0.490000
vt -0.000000 1.000000
vt 0.900000 0.500000
vt 0.891068 0.444164
vt 0.900000 1.000000
vt 0.391068 0.444164
vt 0.800000 0.500000
vt 0.978254 0.324164
vt 0.800000 1.000000
vt 0.478254 0.324164
vt 0.700000 0.500000
vt 0.978254 0.175836
vt 0.700000 1.000000
vt 0.478254 0.175836
vt 0.600000 0.500000
vt 0.891068 0.055836
vt 0.600000 1.000000
vt 0.391068 0.055836
vt 0.500000 0.500000
vt 0.750000 0.010000
vt 0.500000 1.000000
vt 0.250000 0.010000
vt 0.400000 0.500000
vt 0.608932 0.055836
vt 0.400000 1.000000
vt 0.108932 0.055836
vt 0.300000 0.500000
vt 0.521746 0.175836
vt 0.300000 1.000000
vt 0.021746 0.175836
vt 0.200000 0.500000
vt 0.521746 0.324164
vt 0.021746 0.324164
vt 0.200000 1.000000
vt 0.100000 0.500000
vt 0.608932 0.444164
vt 0.108932 0.444164
vt 0.100000 1.000000
s 0
f 1/1/1 33/65/1 2/3/1
f 2/3/2 33/65/2 3/5/2
f 3/5/3 33/65/3 4/7/3
f 4/7/4 33/65/4 5/9/4
f 5/9/5 33/65/5 6/11/5
f 6/11/6 33/65/6 7/13/6
f 7/13/7 33/65/7 8/15/7
f 8/15/8 33/65/8 9/17/8
f 9/17/9 33/65/9 10/19/9
f 10/19/10 33/65/10 11/21/10
f 11/21/11 33/65/11 12/23/11
f 12/23/12 33/65/12 13/25/12
f 13/25/13 33/65/13 14/27/13
f 14/27/14 33/65/14 15/29/14
f 15/29/15 33/65/15 16/31/15
f 16/31/16 33/65/16 17/33/16
f 17/33/17 33/65/17 18/35/17
f 18/35/18 33/65/18 19/37/18
f 19/37/19 33/65/19 20/39/19
f 20/39/20 33/65/20 21/41/20
f 21/41/21 33/65/21 22/43/21
f 22/43/22 33/65/22 23/45/22
f 23/45/23 33/65/23 24/47/23
f 24/47/24 33/65/24 25/49/24
f 25/49/25 33/65/25 26/51/25
f 26/51/26 33/65/26 27/53/26
f 27/53/27 33/65/27 28/55/27
f 28/55/28 33/65/28 29/57/28
f 29/57/29 33/65/29 30/59/29
f 30/59/30 33/65/30 31/61/30
f 16/32/31 24/48/31 32/64/31
f 31/61/32 33/65/32 32/63/32
f 32/63/33 33/65/33 1/1/33
f 35/69/34 36/72/34 34/66/34
f 37/74/35 38/76/35 36/72/35
f 39/78/36 40/80/36 38/76/36
f 41/82/37 42/84/37 40/80/37
f 43/86/38 44/88/38 42/84/38
f 45/90/39 46/92/39 44/88/39
f 47/94/40 48/96/40 46/92/40
f 49/98/41 50/100/41 48/96/41
f 51/102/31 43/87/31 39/79/31
f 50/100/42 53/107/42 52/104/42
f 53/107/43 34/67/43 52/104/43
f 40/81/44 48/97/44 52/105/44
f 32/64/31 1/2/31 2/4/31
f 2/4/31 3/6/31 4/8/31
f 4/8/31 5/10/31 6/12/31
f 6/12/31 7/14/31 8/16/31
f 8/16/31 9/18/31 10/20/31
f 10/20/31 11/22/31 12/24/31
f 12/24/31 13/26/31 14/28/31
f 14/28/31 15/30/31 16/32/31
f 16/32/31 17/34/31 18/36/31
f 18/36/31 19/38/31 20/40/31
f 20/40/31 21/42/31 22/44/31
f 22/44/31 23/46/31 24/48/31
f 24/48/31 25/50/31 26/52/31
f 26/52/31 27/54/31 28/56/31
f 28/56/31 29/58/31 30/60/31
f 30/60/31 31/62/31 32/64/31
f 32/64/31 2/4/31 4/8/31
f 4/8/31 6/12/31 8/16/31
f 8/16/31 10/20/31 12/24/31
f 12/24/31 14/28/31 16/32/31
f 16/32/31 18/36/31 20/40/31
f 20/40/31 22/44/31 24/48/31
f 24/48/31 26/52/31 28/56/31
f 28/56/31 30/60/31 32/64/31
f 32/64/31 4/8/31 8/16/31
f 8/16/31 12/24/31 16/32/31
f 16/32/31 20/40/31 24/48/31
f 24/48/31 28/56/31 32/64/31
f 32/64/31 8/16/31 16/32/31
f 35/69/34 37/74/34 36/72/34
f 37/74/35 39/78/35 38/76/35
f 39/78/36 41/82/36 40/80/36
f 41/82/37 43/86/37 42/84/37
f 43/86/38 45/90/38 44/88/38
f 45/90/39 47/94/39 46/92/39
f 47/94/40 49/98/40 48/96/40
f 49/98/41 51/103/41 50/100/41
f 39/79/31 37/75/31 35/70/31
f 35/70/31 53/106/31 51/102/31
f 51/102/31 49/99/31 47/95/31
f 47/95/31 45/91/31 43/87/31
f 43/87/31 41/83/31 39/79/31
f 39/79/31 35/70/31 51/102/31
f 51/102/31 47/95/31 43/87/31
f 50/100/42 51/103/42 53/107/42
f 53/107/43 35/71/43 34/67/43
f 52/105/44 34/68/44 36/73/44
f 36/73/44 38/77/44 40/81/44
f 40/81/44 42/85/44 44/89/44
f 44/89/44 46/93/44 48/97/44
f 48/97/44 50/101/44 52/105/44
f 52/105/44 36/73/44 40/81/44
f 40/81/44 44/89/44 48/97/44
