# Blender 3.4.1
# www.blender.org
mtllib grid.mtl
o Grid
v -1.000000 0.210589 -1.000000
v -1.000000 0.210589 -0.800000
v -1.000000 0.210589 -0.600000
v -1.000000 0.097554 -0.400000
v -1.000000 0.097554 -0.200000
v -1.000000 0.097554 0.000000
v -1.000000 0.000000 0.200000
v -1.000000 0.000000 0.400000
v -1.000000 0.059404 0.607278
v -1.000000 0.112866 0.800000
v -1.000000 0.166327 0.992722
v -0.800000 0.210589 -1.000000
v -0.800000 0.210589 -0.800000
v -0.800000 0.210589 -0.600000
v -0.800000 0.097554 -0.400000
v -0.800000 0.097554 -0.200000
v -0.800000 0.097554 0.000000
v -0.800000 0.000000 0.200000
v -0.800000 0.000000 0.400000
v -0.800000 0.059404 0.607278
v -0.800000 0.112866 0.800000
v -0.800000 0.166327 0.992722
v -0.600000 0.210589 -1.000000
v -0.600000 0.210589 -0.800000
v -0.600000 0.097554 -0.600000
v -0.600000 0.097554 -0.400000
v -0.600000 0.097554 -0.200000
v -0.600000 0.000000 0.000000
v -0.600000 0.000000 0.200000
v -0.600000 0.000000 0.400000
v -0.600000 0.059404 0.607278
v -0.600000 0.112866 0.800000
v -0.600000 0.166327 0.992722
v -0.400000 0.210589 -1.000000
v -0.400000 0.097554 -0.800000
v -0.400000 0.097554 -0.600000
v -0.400000 0.097554 -0.400000
v -0.400000 0.097554 -0.200000
v -0.400000 0.000000 0.000000
v -0.400000 0.000000 0.200000
v -0.400000 0.000000 0.400000
v -0.400000 0.059404 0.607278
v -0.400000 0.112866 0.800000
v -0.400000 0.166327 0.992722
v -0.200000 0.097554 -1.000000
v -0.200000 0.097554 -0.800000
v -0.200000 0.097554 -0.600000
v -0.200000 0.097554 -0.400000
v -0.200000 0.000000 -0.200000
v -0.200000 0.000000 0.000000
v -0.200000 0.000000 0.200000
v -0.200000 0.000000 0.400000
v -0.200000 0.059404 0.607278
v -0.200000 0.112866 0.800000
v -0.200000 0.166327 0.992722
v 0.000000 0.097554 -1.000000
v 0.000000 0.097554 -0.800000
v 0.000000 0.097554 -0.600000
v 0.000000 0.000000 -0.400000
v 0.000000 0.000000 -0.200000
v 0.000000 0.000000 0.000000
v 0.000000 0.000000 0.200000
v 0.000000 0.000000 0.400000
v 0.000000 0.059404 0.607278
v 0.000000 0.112866 0.800000
v 0.000000 0.166327 0.992722
v 0.200000 0.097554 -1.000000
v 0.200000 0.097554 -0.800000
v 0.200000 0.097554 -0.600000
v 0.200000 0.000000 -0.400000
v 0.200000 0.000000 -0.200000
v 0.200000 0.000000 0.000000
v 0.200000 0.000000 0.200000
v 0.200000 0.000000 0.400000
v 0.200000 0.059404 0.607278
v 0.200000 0.112866 0.800000
v 0.200000 0.166327 0.992722
v 0.400000 0.097554 -1.000000
v 0.400000 0.097554 -0.800000
v 0.400000 0.000000 -0.600000
v 0.400000 0.000000 -0.400000
v 0.400000 0.000000 -0.200000
v 0.400000 0.000000 0.000000
v 0.400000 0.000000 0.200000
v 0.400000 0.000000 0.400000
v 0.400000 0.059404 0.607278
v 0.400000 0.112866 0.800000
v 0.400000 0.166327 0.992722
v 0.600000 0.000000 -1.000000
v 0.600000 0.000000 -0.800000
v 0.600000 0.000000 -0.600000
v 0.600000 0.000000 -0.400000
v 0.600000 0.000000 -0.200000
v 0.600000 0.000000 0.000000
v 0.600000 0.000000 0.200000
v 0.600000 0.000000 0.400000
v 0.600000 0.059404 0.607278
v 0.600000 0.112866 0.800000
v 0.600000 0.166327 0.992722
v 0.800000 0.000000 -1.000000
v 0.800000 0.000000 -0.800000
v 0.800000 0.000000 -0.600000
v 0.800000 0.000000 -0.400000
v 0.800000 0.000000 -0.200000
v 0.800000 0.000000 0.000000
v 0.800000 0.000000 0.200000
v 0.800000 0.000000 0.400000
v 0.800000 0.059404 0.607278
v 0.800000 0.112866 0.800000
v 0.800000 0.166327 0.992722
v 1.000000 0.000000 -1.000000
v 1.000000 0.000000 -0.800000
v 1.000000 0.000000 -0.600000
v 1.000000 0.000000 -0.400000
v 1.000000 0.000000 -0.200000
v 1.000000 0.000000 0.000000
v 1.000000 0.000000 0.200000
v 1.000000 0.000000 0.400000
v 1.000000 0.059404 0.607278
v 1.000000 0.112866 0.800000
v 1.000000 0.166327 0.992722
vn -0.0000 1.0000 -0.0000
vn -0.0000 0.8706 0.4920
vn -0.0000 0.8988 0.4384
vn -0.0000 0.9613 -0.2755
vn -0.0000 0.9636 -0.2673
vn 0.4415 0.7811 0.4415
vn 0.4015 0.8232 0.4015
vn 0.4384 0.8988 -0.0000
vt 0.000000 0.000000
vt 0.100000 0.000000
vt 0.200000 0.000000
vt 0.300000 0.000000
vt 0.400000 0.000000
vt 0.500000 0.000000
vt 0.600000 0.000000
vt 0.700000 0.000000
vt 0.800000 0.000000
vt 0.900000 0.000000
vt 1.000000 0.000000
vt 0.000000 0.100000
vt 0.100000 0.100000
vt 0.200000 0.100000
vt 0.300000 0.100000
vt 0.400000 0.100000
vt 0.500000 0.100000
vt 0.600000 0.100000
vt 0.700000 0.100000
vt 0.800000 0.100000
vt 0.900000 0.100000
vt 1.000000 0.100000
vt 0.000000 0.200000
vt 0.100000 0.200000
vt 0.200000 0.200000
vt 0.300000 0.200000
vt 0.400000 0.200000
vt 0.500000 0.200000
vt 0.600000 0.200000
vt 0.700000 0.200000
vt 0.800000 0.200000
vt 0.900000 0.200000
vt 1.000000 0.200000
vt 0.000000 0.300000
vt 0.100000 0.300000
vt 0.200000 0.300000
vt 0.300000 0.300000
vt 0.400000 0.300000
vt 0.500000 0.300000
vt 0.600000 0.300000
vt 0.700000 0.300000
vt 0.800000 0.300000
vt 0.900000 0.300000
vt 1.000000 0.300000
vt 0.000000 0.400000
vt 0.100000 0.400000
vt 0.200000 0.400000
vt 0.300000 0.400000
vt 0.400000 0.400000
vt 0.500000 0.400000
vt 0.600000 0.400000
vt 0.700000 0.400000
vt 0.800000 0.400000
vt 0.900000 0.400000
vt 1.000000 0.400000
vt 0.000000 0.500000
vt 0.100000 0.500000
vt 0.200000 0.500000
vt 0.300000 0.500000
vt 0.400000 0.500000
vt 0.500000 0.500000
vt 0.600000 0.500000
vt 0.700000 0.500000
vt 0.800000 0.500000
vt 0.900000 0.500000
vt 1.000000 0.500000
vt 0.000000 0.600000
vt 0.100000 0.600000
vt 0.200000 0.600000
vt 0.300000 0.600000
vt 0.400000 0.600000
vt 0.500000 0.600000
vt 0.600000 0.600000
vt 0.700000 0.600000
vt 0.800000 0.600000
vt 0.900000 0.600000
vt 1.000000 0.600000
vt 0.000000 0.700000
vt 0.100000 0.700000
vt 0.200000 0.700000
vt 0.300000 0.700000
vt 0.400000 0.700000
vt 0.500000 0.700000
vt 0.600000 0.700000
vt 0.700000 0.700000
vt 0.800000 0.700000
vt 0.900000 0.700000
vt 1.000000 0.700000
vt 0.000000 0.800000
vt 0.100000 0.800000
vt 0.200000 0.800000
vt 0.300000 0.800000
vt 0.400000 0.800000
vt 0.500000 0.800000
vt 0.600000 0.800000
vt 0.700000 0.800000
vt 0.800000 0.800000
vt 0.900000 0.800000
vt 1.000000 0.800000
vt 0.000000 0.900000
vt 0.100000 0.900000
vt 0.200000 0.900000
vt 0.300000 0.900000
vt 0.400000 0.900000
vt 0.500000 0.900000
vt 0.600000 0.900000
vt 0.700000 0.900000
vt 0.800000 0.900000
vt 0.900000 0.900000
vt 1.000000 0.900000
vt 0.000000 1.000000
vt 0.100000 1.000000
vt 0.200000 1.000000
vt 0.300000 1.000000
vt 0.400000 1.000000
vt 0.500000 1.000000
vt 0.600000 1.000000
vt 0.700000 1.000000
vt 0.800000 1.000000
vt 0.900000 1.000000
vt 1.000000 1.000000
s 0
f 2/2/1 12/12/1 1/1/1
f 3/3/1 13/13/1 2/2/1
f 4/4/2 14/14/2 3/3/2
f 5/5/1 15/15/1 4/4/1
f 6/6/1 16/16/1 5/5/1
f 7/7/3 17/17/3 6/6/3
f 8/8/1 18/18/1 7/7/1
f 9/9/4 19/19/4 8/8/4
f 10/10/5 20/20/5 9/9/5
f 11/11/5 21/21/5 10/10/5
f 13/13/1 23/23/1 12/12/1
f 14/14/1 24/24/1 13/13/1
f 15/15/6 25/25/6 14/14/6
f 16/16/1 26/26/1 15/15/1
f 17/17/1 27/27/1 16/16/1
f 18/18/7 28/28/7 17/17/7
f 19/19/1 29/29/1 18/18/1
f 20/20/4 30/30/4 19/19/4
f 21/21/5 31/31/5 20/20/5
f 22/22/5 32/32/5 21/21/5
f 24/24/1 34/34/1 23/23/1
f 25/25/6 35/35/6 24/24/6
f 26/26/1 36/36/1 25/25/1
f 27/27/1 37/37/1 26/26/1
f 28/28/3 38/38/3 27/27/3
f 29/29/1 39/39/1 28/28/1
f 30/30/1 40/40/1 29/29/1
f 31/31/4 41/41/4 30/30/4
f 32/32/5 42/42/5 31/31/5
f 33/33/5 43/43/5 32/32/5
f 35/35/6 45/45/6 34/34/6
f 36/36/1 46/46/1 35/35/1
f 37/37/1 47/47/1 36/36/1
f 38/38/1 48/48/1 37/37/1
f 39/39/7 49/49/7 38/38/7
f 40/40/1 50/50/1 39/39/1
f 41/41/1 51/51/1 40/40/1
f 42/42/4 52/52/4 41/41/4
f 43/43/5 53/53/5 42/42/5
f 44/44/5 54/54/5 43/43/5
f 46/46/1 56/56/1 45/45/1
f 47/47/1 57/57/1 46/46/1
f 48/48/1 58/58/1 47/47/1
f 49/49/7 59/59/7 48/48/7
f 50/50/1 60/60/1 49/49/1
f 51/51/1 61/61/1 50/50/1
f 52/52/1 62/62/1 51/51/1
f 53/53/4 63/63/4 52/52/4
f 54/54/5 64/64/5 53/53/5
f 55/55/5 65/65/5 54/54/5
f 57/57/1 67/67/1 56/56/1
f 58/58/1 68/68/1 57/57/1
f 59/59/3 69/69/3 58/58/3
f 60/60/1 70/70/1 59/59/1
f 61/61/1 71/71/1 60/60/1
f 62/62/1 72/72/1 61/61/1
f 63/63/1 73/73/1 62/62/1
f 64/64/4 74/74/4 63/63/4
f 65/65/5 75/75/5 64/64/5
f 66/66/5 76/76/5 65/65/5
f 68/68/1 78/78/1 67/67/1
f 69/69/1 79/79/1 68/68/1
f 70/70/7 80/80/7 69/69/7
f 71/71/1 81/81/1 70/70/1
f 72/72/1 82/82/1 71/71/1
f 73/73/1 83/83/1 72/72/1
f 74/74/1 84/84/1 73/73/1
f 75/75/4 85/85/4 74/74/4
f 76/76/5 86/86/5 75/75/5
f 77/77/5 87/87/5 76/76/5
f 79/79/8 89/89/8 78/78/8
f 80/80/7 90/90/7 79/79/7
f 81/81/1 91/91/1 80/80/1
f 82/82/1 92/92/1 81/81/1
f 83/83/1 93/93/1 82/82/1
f 84/84/1 94/94/1 83/83/1
f 85/85/1 95/95/1 84/84/1
f 86/86/4 96/96/4 85/85/4
f 87/87/5 97/97/5 86/86/5
f 88/88/5 98/98/5 87/87/5
f 90/90/1 100/100/1 89/89/1
f 91/91/1 101/101/1 90/90/1
f 92/92/1 102/102/1 91/91/1
f 93/93/1 103/103/1 92/92/1
f 94/94/1 104/104/1 93/93/1
f 95/95/1 105/105/1 94/94/1
f 96/96/1 106/106/1 95/95/1
f 97/97/4 107/107/4 96/96/4
f 98/98/5 108/108/5 97/97/5
f 99/99/5 109/109/5 98/98/5
f 101/101/1 111/111/1 100/100/1
f 102/102/1 112/112/1 101/101/1
f 103/103/1 113/113/1 102/102/1
f 104/104/1 114/114/1 103/103/1
f 105/105/1 115/115/1 104/104/1
f 106/106/1 116/116/1 105/105/1
f 107/107/1 117/117/1 106/106/1
f 108/108/4 118/118/4 107/107/4
f 109/109/5 119/119/5 108/108/5
f 110/110/5 120/120/5 109/109/5
f 2/2/1 13/13/1 12/12/1
f 3/3/1 14/14/1 13/13/1
f 4/4/2 15/15/2 14/14/2
f 5/5/1 16/16/1 15/15/1
f 6/6/1 17/17/1 16/16/1
f 7/7/3 18/18/3 17/17/3
f 8/8/1 19/19/1 18/18/1
f 9/9/4 20/20/4 19/19/4
f 10/10/5 21/21/5 20/20/5
f 11/11/5 22/22/5 21/21/5
f 13/13/1 24/24/1 23/23/1
f 14/14/6 25/25/6 24/24/6
f 15/15/1 26/26/1 25/25/1
f 16/16/1 27/27/1 26/26/1
f 17/17/7 28/28/7 27/27/7
f 18/18/1 29/29/1 28/28/1
f 19/19/1 30/30/1 29/29/1
f 20/20/4 31/31/4 30/30/4
f 21/21/5 32/32/5 31/31/5
f 22/22/5 33/33/5 32/32/5
f 24/24/6 35/35/6 34/34/6
f 25/25/1 36/36/1 35/35/1
f 26/26/1 37/37/1 36/36/1
f 27/27/1 38/38/1 37/37/1
f 28/28/3 39/39/3 38/38/3
f 29/29/1 40/40/1 39/39/1
f 30/30/1 41/41/1 40/40/1
f 31/31/4 42/42/4 41/41/4
f 32/32/5 43/43/5 42/42/5
f 33/33/5 44/44/5 43/43/5
f 35/35/1 46/46/1 45/45/1
f 36/36/1 47/47/1 46/46/1
f 37/37/1 48/48/1 47/47/1
f 38/38/7 49/49/7 48/48/7
f 39/39/1 50/50/1 49/49/1
f 40/40/1 51/51/1 50/50/1
f 41/41/1 52/52/1 51/51/1
f 42/42/4 53/53/4 52/52/4
f 43/43/5 54/54/5 53/53/5
f 44/44/5 55/55/5 54/54/5
f 46/46/1 57/57/1 56/56/1
f 47/47/1 58/58/1 57/57/1
f 48/48/7 59/59/7 58/58/7
f 49/49/1 60/60/1 59/59/1
f 50/50/1 61/61/1 60/60/1
f 51/51/1 62/62/1 61/61/1
f 52/52/1 63/63/1 62/62/1
f 53/53/4 64/64/4 63/63/4
f 54/54/5 65/65/5 64/64/5
f 55/55/5 66/66/5 65/65/5
f 57/57/1 68/68/1 67/67/1
f 58/58/1 69/69/1 68/68/1
f 59/59/3 70/70/3 69/69/3
f 60/60/1 71/71/1 70/70/1
f 61/61/1 72/72/1 71/71/1
f 62/62/1 73/73/1 72/72/1
f 63/63/1 74/74/1 73/73/1
f 64/64/4 75/75/4 74/74/4
f 65/65/5 76/76/5 75/75/5
f 66/66/5 77/77/5 76/76/5
f 68/68/1 79/79/1 78/78/1
f 69/69/7 80/80/7 79/79/7
f 70/70/1 81/81/1 80/80/1
f 71/71/1 82/82/1 81/81/1
f 72/72/1 83/83/1 82/82/1
f 73/73/1 84/84/1 83/83/1
f 74/74/1 85/85/1 84/84/1
f 75/75/4 86/86/4 85/85/4
f 76/76/5 87/87/5 86/86/5
f 77/77/5 88/88/5 87/87/5
f 79/79/8 90/90/8 89/89/8
f 80/80/1 91/91/1 90/90/1
f 81/81/1 92/92/1 91/91/1
f 82/82/1 93/93/1 92/92/1
f 83/83/1 94/94/1 93/93/1
f 84/84/1 95/95/1 94/94/1
f 85/85/1 96/96/1 95/95/1
f 86/86/4 97/97/4 96/96/4
f 87/87/5 98/98/5 97/97/5
f 88/88/5 99/99/5 98/98/5
f 90/90/1 101/101/1 100/100/1
f 91/91/1 102/102/1 101/101/1
f 92/92/1 103/103/1 102/102/1
f 93/93/1 104/104/1 103/103/1
f 94/94/1 105/105/1 104/104/1
f 95/95/1 106/106/1 105/105/1
f 96/96/1 107/107/1 106/106/1
f 97/97/4 108/108/4 107/107/4
f 98/98/5 109/109/5 108/108/5
f 99/99/5 110/110/5 109/109/5
f 101/101/1 112/112/1 111/111/1
f 102/102/1 113/113/1 112/112/1
f 103/103/1 114/114/1 113/113/1
f 104/104/1 115/115/1 114/114/1
f 105/105/1 116/116/1 115/115/1
f 106/106/1 117/117/1 116/116/1
f 107/107/1 118/118/1 117/117/1
f 108/108/4 119/119/4 118/118/4
f 109/109/5 120/120/5 119/119/5
f 110/110/5 121/121/5 120/120/5
