# Blender 3.4.1
# www.blender.org
mtllib test_map2.mtl
o Grid.002
v -7.000000 0.000000 -7.000000
v -7.000000 -0.000000 8.000000
v -7.000000 1.055183 11.000001
v -7.000000 1.994094 14.000000
v -6.999999 1.994094 17.000000
v -6.999999 3.390920 20.000000
v -6.999999 3.390920 23.000000
v -0.999999 1.994094 17.000000
v -0.999999 3.390920 20.000000
v -0.999999 3.390920 23.000000
v 2.000000 1.055183 11.000001
v 2.000001 1.994094 14.000000
v 2.000001 1.994094 17.000000
v 2.000001 1.994094 20.000000
v 2.000001 1.994094 23.000000
v 5.000000 -0.000000 8.000000
v 5.000000 1.055183 11.000001
v 5.000000 1.055182 14.000000
v 5.000001 1.055182 23.000000
v 8.000000 0.000000 -7.000000
v 8.000000 -0.000000 5.000000
v 8.000000 -0.000000 8.000000
v 8.000001 -0.000000 11.000001
v 8.000001 -0.000001 23.000000
v 11.000001 -1.001662 -7.000000
v 11.000001 -1.001662 2.000000
v 11.000001 -1.001662 5.000000
v 11.000001 -0.000000 8.000000
v 14.000000 -2.105452 -7.000000
v 14.000000 -2.105452 -1.000001
v 14.000000 -2.105452 1.999999
v 14.000000 -1.001662 5.000000
v 17.000000 -3.653165 -7.000001
v 17.000000 -3.653165 -1.000001
v 17.000000 -2.105452 1.999999
v 23.000000 -3.653165 -1.000001
v 23.000000 -2.105452 1.999999
v 23.000000 -1.001662 4.999999
v 23.000000 -0.000000 7.999999
v 23.000002 -0.000001 22.999998
v 22.999182 -3.653165 -6.994613
vn -0.0000 1.0000 -0.0000
vn -0.0000 0.9066 -0.4221
vn -0.0000 0.9544 -0.2987
vn 0.2987 0.9544 -0.0000
vn 0.3318 0.9433 -0.0000
vn 0.4221 0.9066 -0.0000
vn 0.3167 0.9485 -0.0000
vn 0.3019 0.9043 -0.3019
vn 0.3453 0.9385 -0.0000
vn 0.3264 0.8871 -0.3264
vn -0.0000 0.9485 -0.3167
vn 0.4585 0.8887 -0.0000
vn 0.4168 0.8078 -0.4168
vn -0.0000 0.9385 -0.3453
vn 0.3889 0.8352 -0.3889
vn 0.2862 0.9144 -0.2862
vn -0.0000 0.9998 0.0221
vn 0.0002 0.9506 -0.3106
vn -0.0000 0.9479 -0.3187
vn -0.0505 0.9986 -0.0133
vn -0.0000 0.9997 0.0228
vn -0.0001 0.9997 0.0224
vn 0.3149 0.8953 -0.3149
vn -0.0000 0.8887 -0.4585
vn -0.0000 0.9597 -0.2810
vn 0.2534 0.8881 -0.3836
vn -0.0000 0.8092 -0.5875
vn -0.0000 0.8234 -0.5675
vt 0.000000 0.000000
vt 0.500000 0.000000
vt 0.600000 0.000000
vt 0.700000 0.000000
vt 0.800000 0.000000
vt 0.900000 0.000000
vt 0.000000 0.000000
vt 0.800000 0.200000
vt 0.900000 0.200000
vt 1.000000 0.200000
vt 0.600000 0.300000
vt 0.700000 0.300000
vt 0.800000 0.300000
vt 0.900000 0.300000
vt 1.000000 0.300000
vt 0.500000 0.400000
vt 0.600000 0.400000
vt 0.700000 0.400000
vt 1.000000 0.400000
vt 0.000000 0.500000
vt 0.400000 0.500000
vt 0.500000 0.500000
vt 0.600000 0.500000
vt 1.000000 0.500000
vt 0.000000 0.600000
vt 0.300000 0.600000
vt 0.400000 0.600000
vt 0.500000 0.600000
vt 0.000000 0.700000
vt 0.200000 0.700000
vt 0.300000 0.700000
vt 0.400000 0.700000
vt 0.000000 0.000000
vt 0.200000 0.800000
vt 0.300000 0.800000
vt 0.000000 0.000000
vt 0.300000 1.000000
vt 0.400000 1.000000
vt 0.500000 1.000000
vt 1.000000 1.000000
vt 0.000000 0.000000
s 0
f 7/7/1 9/9/1 6/6/1
f 6/6/2 9/9/2 8/8/2
f 9/9/1 7/7/1 10/10/1
f 12/12/3 11/11/3 4/4/3
f 8/8/1 14/14/1 13/13/1
f 11/11/1 18/18/1 17/17/1
f 19/19/4 18/18/4 15/15/4
f 16/16/1 23/23/1 22/22/1
f 23/23/5 17/17/5 18/18/5 19/19/5
f 10/10/6 14/14/6 9/9/6
f 25/25/7 20/20/7 21/21/7 27/27/7 26/26/7
f 21/21/8 28/28/8 27/27/8
f 29/29/9 25/25/9 26/26/9 31/31/9 30/30/9
f 26/26/10 32/32/10 31/31/10
f 39/39/11 38/38/11 28/28/11
f 33/33/12 29/29/12 30/30/12
f 30/30/13 35/35/13 34/34/13
f 38/38/14 37/37/14 32/32/14
f 5/5/1 8/8/1 13/13/1 12/12/1
f 8/8/15 9/9/15 14/14/15
f 11/11/16 12/12/16 18/18/16
f 1/1/17 2/2/18 3/3/19 16/16/20 22/22/21 21/21/22 20/20/17
f 16/16/23 17/17/23 23/23/23
f 21/21/1 22/22/1 28/28/1
f 26/26/1 27/27/1 32/32/1
f 30/30/1 31/31/1 35/35/1
f 33/33/12 30/30/12 34/34/12
f 36/36/24 35/35/24 37/37/24
f 40/40/1 39/39/1 28/28/1 22/22/1
f 35/35/24 36/36/24 34/34/24
f 32/32/14 37/37/14 35/35/14 31/31/14
f 28/28/11 38/38/11 32/32/11 27/27/11
f 22/22/1 23/23/1 24/24/1 40/40/1
f 16/16/25 3/3/26 11/11/27 17/17/28
f 4/4/3 11/11/3 3/3/3
f 12/12/1 4/4/1 5/5/1
f 15/15/4 18/18/4 12/12/4 13/13/4 14/14/4
f 19/19/5 24/24/5 23/23/5
f 8/8/2 5/5/2 6/6/2
f 14/14/6 10/10/6 15/15/6
f 41/41/1 33/33/1 34/34/1 36/36/1
l 2 16
l 21 25
l 26 29
l 34 41
l 1 22
